HIERARCHY
ROOT Hips
{
  OFFSET 51.7518 86.765 6.93037
  CHANNELS 6 Xposition Yposition Zposition Zrotation Xrotation Yrotation
  JOINT spine
  {
    OFFSET 0 6.84637 0.3937
    CHANNELS 3 Zrotation Xrotation Yrotation
    JOINT spine1
    {
      OFFSET 0 9.49621 0
      CHANNELS 3 Zrotation Xrotation Yrotation
      JOINT spine2
      {
        OFFSET 0 9.09909 0
        CHANNELS 3 Zrotation Xrotation Yrotation
        JOINT Neck
        {
          OFFSET 0 23.3612 1.11378
          CHANNELS 3 Zrotation Xrotation Yrotation
          JOINT Head
          {
            OFFSET 0 7.05802 0
            CHANNELS 3 Zrotation Xrotation Yrotation
            End Site
            {
              OFFSET 0 17.0844 -5.63419
            }
          }
        }
        JOINT RightShoulder
        {
          OFFSET -3.83136 9.82631 -0.533491
          CHANNELS 3 Zrotation Xrotation Yrotation
          JOINT RightArm
          {
            OFFSET 0 12.8881 0
            CHANNELS 3 Zrotation Xrotation Yrotation
            JOINT RightArmRoll
            {
              OFFSET 0 6.50616 0
              CHANNELS 3 Zrotation Xrotation Yrotation
              JOINT RightForeArm
              {
                OFFSET 0 18.9501 0
                CHANNELS 3 Zrotation Xrotation Yrotation
                JOINT RightForeArmRoll
                {
                  OFFSET 0 7.30092 0
                  CHANNELS 3 Zrotation Xrotation Yrotation
                  JOINT RightHand
                  {
                    OFFSET 0 14.6514 0
                    CHANNELS 3 Zrotation Xrotation Yrotation
                    End Site
                    {
                      OFFSET 0 0 0
                    }
                  }
                }
              }
            }
          }
        }
        JOINT LeftShoulder
        {
          OFFSET 3.83136 9.82631 -0.533491
          CHANNELS 3 Zrotation Xrotation Yrotation
          JOINT LeftArm
          {
            OFFSET 0 12.8881 0
            CHANNELS 3 Zrotation Xrotation Yrotation
            JOINT LeftArmRoll
            {
              OFFSET 0 6.50617 0
              CHANNELS 3 Zrotation Xrotation Yrotation
              JOINT LeftForeArm
              {
                OFFSET 0 18.9501 0
                CHANNELS 3 Zrotation Xrotation Yrotation
                JOINT LeftForeArmRoll
                {
                  OFFSET 0 7.30092 0
                  CHANNELS 3 Zrotation Xrotation Yrotation
                  JOINT LeftHand
                  {
                    OFFSET 0 14.6514 0
                    CHANNELS 3 Zrotation Xrotation Yrotation
                    End Site
                    {
                      OFFSET 0 0 0
                    }
                  }
                }
              }
            }
          }
        }
      }
    }
  }
  JOINT RightUpLeg
  {
    OFFSET -6.06837 -1.11278 -0.933477
    CHANNELS 3 Zrotation Xrotation Yrotation
    JOINT RightUpLegRoll
    {
      OFFSET 0 17.1796 0
      CHANNELS 3 Zrotation Xrotation Yrotation
      JOINT RightLeg
      {
        OFFSET 0 -21.2743 0
        CHANNELS 3 Zrotation Xrotation Yrotation
        JOINT RightLegRoll
        {
          OFFSET 0 21.3439 0
          CHANNELS 3 Zrotation Xrotation Yrotation
          JOINT RightFoot
          {
            OFFSET 0 17.7652 0
            CHANNELS 3 Zrotation Xrotation Yrotation
            JOINT RightToeBase
            {
              OFFSET 0 14.8508 0
              CHANNELS 3 Zrotation Xrotation Yrotation
              End Site
              {
                OFFSET 0.0062947 7.19214 -0.829005
              }
            }
          }
        }
      }
    }
  }
  JOINT LeftUpLeg
  {
    OFFSET 6.06837 -1.11278 -0.933477
    CHANNELS 3 Zrotation Xrotation Yrotation
    JOINT LeftUpLegRoll
    {
      OFFSET 0 17.1797 0
      CHANNELS 3 Zrotation Xrotation Yrotation
      JOINT LeftLeg
      {
        OFFSET 0 21.2742 0
        CHANNELS 3 Zrotation Xrotation Yrotation
        JOINT LeftLegRoll
        {
          OFFSET 0 21.5412 0
          CHANNELS 3 Zrotation Xrotation Yrotation
          JOINT LeftFoot
          {
            OFFSET 0 17.5679 0
            CHANNELS 3 Zrotation Xrotation Yrotation
            JOINT LeftToeBase
            {
              OFFSET 0 14.8508 0
              CHANNELS 3 Zrotation Xrotation Yrotation
              End Site
              {
                OFFSET -0.0282102 7.19214 -0.829005
              }
            }
          }
        }
      }
    }
  }
}
MOTION
Frames: 14
Frame Time: 0.00208333
49.7446 86.6428 3.63009 1.75877 -2.21941 5.50988 2.56446 0.221602 0.624842 5.13399 4.46155 0.912554 5.13145 6.1027 0.82738 -37.734 19.3241 8.60511 21.4948 16.2679 -6.30105 26.8978 -1.43739 3.42577 108.87 60.2784 -2.13615 -4.62574e-006 -3.3066e-006 -3.6222e-006 10.4422 39.128 -4.25823 -5.40159e-006 1.10537e-006 -3.00357 8.02891 -4.95147 0.697705 -66.9659 -11.7891 7.20328 -90.8054 29.0846 41.1239 2.17674e-005 2.64075e-006 2.12765e-006 85.9174 79.782 -74.4934 7.29386e-006 5.26163e-006 3 -8.02887 -4.95144 -0.697678 178.751 13.8073 -1.16267 180 7.01495e-015 178.718 175.723 24.8193 -179.437 -5.79216e-006 2.69059e-007 0.727871 -25.9062 71.8194 23.792 8.13649 25.2327 -3.48773 -179.028 11.91 2.242 -1.07169e-005 -4.64205e-006 -0.921147 -0.167697 -22.8824 0.986447 -1.37099e-006 -3.52311e-006 -0.481013 18.3036 71.9204 -23.0226 -8.13649 25.2327 3.48774 
49.754 86.6413 3.6393 1.73861 -2.22075 5.44914 2.55625 0.209095 0.625321 5.11752 4.43657 0.915233 5.11489 6.07774 0.830338 -37.4752 19.3132 8.55907 21.2198 16.2582 -6.22653 27.1918 -1.50869 3.29756 109.078 59.9011 -2.78082 -4.62574e-006 -3.3066e-006 -3.6222e-006 10.4186 39.622 -4.24549 -5.40159e-006 1.10537e-006 -3.00356 8.02891 -4.95147 0.697705 -66.7618 -11.7314 7.17586 -91.0453 29.782 40.8432 2.17674e-005 2.64075e-006 2.12765e-006 83.4629 80.0861 -72.4651 7.29386e-006 5.26163e-006 3 -8.02887 -4.95144 -0.697678 178.766 13.8038 -1.1771 180 7.01495e-015 178.718 175.727 24.8098 -179.439 -5.79216e-006 2.69059e-007 0.727217 -25.8907 71.816 23.786 8.13649 25.2327 -3.48773 -179.012 11.9088 2.22115 -1.07169e-005 -4.64205e-006 -0.921124 -0.17441 -22.9133 0.984911 -1.37099e-006 -3.52311e-006 -0.482445 18.3501 71.9517 -23.0585 -8.13649 25.2327 3.48774 
49.7658 86.6347 3.63607 1.71834 -2.22122 5.38872 2.54796 0.196767 0.625417 5.10092 4.41192 0.917018 5.0982 6.05312 0.832402 -37.2078 19.3006 8.50855 20.9226 16.245 -6.15128 27.4868 -1.5803 3.16998 109.272 59.5139 -3.43279 -4.62574e-006 -3.3066e-006 -3.6222e-006 10.3835 40.1287 -4.2258 -5.40159e-006 1.10537e-006 -3.00354 8.02891 -4.95147 0.697705 -66.5503 -11.6788 7.15114 -91.301 30.4771 40.5899 2.17674e-005 2.64075e-006 2.12765e-006 80.968 80.3633 -70.3777 7.29386e-006 5.26163e-006 3 -8.02887 -4.95144 -0.697678 178.781 13.8001 -1.19046 180 7.01495e-015 178.718 175.731 24.7989 -179.441 -5.79216e-006 2.69059e-007 0.726434 -25.8752 71.8121 23.7795 8.13649 25.2327 -3.48773 -178.995 11.9078 2.20009 -1.07169e-005 -4.64205e-006 -0.921121 -0.181731 -22.9432 0.983102 -1.37099e-006 -3.52311e-006 -0.483853 18.3973 71.9826 -23.0941 -8.13649 25.2327 3.48774 
49.7764 86.6366 3.65092 1.69835 -2.22137 5.32904 2.53948 0.184746 0.625036 5.08392 4.38787 0.917745 5.08113 6.02909 0.833414 -36.9281 19.2863 8.45157 20.5952 16.2267 -6.07514 27.7827 -1.65294 3.04255 109.452 59.117 -4.09014 -4.62574e-006 -3.3066e-006 -3.6222e-006 10.3379 40.6483 -4.20058 -5.40159e-006 1.10537e-006 -3.00353 8.02891 -4.95147 0.697705 -66.3305 -11.6317 7.12933 -91.5717 31.1704 40.3611 2.17674e-005 2.64075e-006 2.12765e-006 78.4507 80.6159 -68.2494 7.29386e-006 5.26163e-006 3 -8.02887 -4.95144 -0.697678 178.795 13.7956 -1.20242 180 7.01495e-015 178.718 175.733 24.7868 -179.443 -5.79216e-006 2.69059e-007 0.725513 -25.8601 71.8081 23.773 8.13649 25.2327 -3.48773 -178.979 11.9065 2.17889 -1.07169e-005 -4.64205e-006 -0.921152 -0.189848 -22.9717 0.98092 -1.37099e-006 -3.52311e-006 -0.485234 18.445 72.0127 -23.1292 -8.13649 25.2327 3.48774 
49.7857 86.6456 3.70292 1.67861 -2.22112 5.26995 2.53083 0.172986 0.624214 5.06658 4.36431 0.9175 5.06372 6.00556 0.833458 -36.6386 19.2702 8.38941 20.2436 16.2044 -5.99832 28.0789 -1.72645 2.91541 109.616 58.7109 -4.75132 -4.62574e-006 -3.3066e-006 -3.6222e-006 10.2817 41.1793 -4.16964 -5.40159e-006 1.10537e-006 -3.00352 8.02891 -4.95147 0.697705 -66.1034 -11.5891 7.10997 -91.8567 31.8616 40.1538 2.17674e-005 2.64075e-006 2.12765e-006 75.9007 80.845 -66.0723 7.29386e-006 5.26163e-006 3 -8.02887 -4.95144 -0.697678 178.808 13.7904 -1.21316 180 7.01495e-015 178.717 175.735 24.7737 -179.444 -5.79216e-006 2.69059e-007 0.72447 -25.8453 71.804 23.7664 8.13649 25.2327 -3.48773 -178.963 11.9049 2.15761 -1.07169e-005 -4.64205e-006 -0.921214 -0.198623 -22.999 0.978426 -1.37099e-006 -3.52311e-006 -0.486588 18.4929 72.0421 -23.1638 -8.13649 25.2327 3.48774 
49.797 86.6444 3.70541 1.6591 -2.22039 5.21128 2.52202 0.161442 0.622988 5.04893 4.34116 0.916367 5.04603 5.98244 0.832619 -36.3421 19.2523 8.32329 19.8736 16.179 -5.92102 28.3749 -1.8007 2.78874 109.767 58.2961 -5.41492 -4.62574e-006 -3.3066e-006 -3.6222e-006 10.2147 41.7202 -4.13277 -5.40159e-006 1.10537e-006 -3.0035 8.02891 -4.95147 0.697705 -65.8704 -11.5505 7.09259 -92.1549 32.5508 39.9649 2.17674e-005 2.64075e-006 2.12765e-006 73.3063 81.0515 -63.8372 7.29386e-006 5.26163e-006 3 -8.02887 -4.95144 -0.697678 178.82 13.785 -1.22287 180 7.01495e-015 178.717 175.736 24.7598 -179.445 -5.79216e-006 2.69059e-007 0.723324 -25.8307 71.7998 23.7596 8.13649 25.2327 -3.48773 -178.948 11.9033 2.13635 -1.07169e-005 -4.64205e-006 -0.921303 -0.207917 -23.0251 0.975683 -1.37099e-006 -3.52311e-006 -0.487914 18.5411 72.0708 -23.1979 -8.13649 25.2327 3.48774 
49.8073 86.6424 3.69678 1.63983 -2.2191 5.1529 2.51307 0.15007 0.621393 5.03103 4.31834 0.914434 5.02809 5.95964 0.830982 -36.0411 19.2325 8.25446 19.4912 16.1517 -5.84344 28.6703 -1.87553 2.66269 109.905 57.8731 -6.07962 -4.62574e-006 -3.3066e-006 -3.6222e-006 10.1369 42.2695 -4.08974 -5.40159e-006 1.10537e-006 -3.00349 8.02891 -4.95147 0.697705 -65.6326 -11.5149 7.07674 -92.4651 33.2379 39.7912 2.17674e-005 2.64075e-006 2.12765e-006 70.6553 81.2356 -61.5345 7.29386e-006 5.26163e-006 3 -8.02887 -4.95144 -0.697678 178.831 13.7794 -1.23174 180 7.01495e-015 178.717 175.736 24.7452 -179.446 -5.79216e-006 2.69059e-007 0.722091 -25.8162 71.7955 23.7527 8.13649 25.2327 -3.48773 -178.933 11.9015 2.11516 -1.07169e-005 -4.64205e-006 -0.921414 -0.217593 -23.0502 0.972754 -1.37099e-006 -3.52311e-006 -0.489213 18.5894 72.0991 -23.2317 -8.13649 25.2327 3.48774 
49.813 86.6366 3.7024 1.62076 -2.21719 5.09463 2.50402 0.138824 0.619466 5.0129 4.29575 0.911784 5.00994 5.93708 0.828632 -35.7381 19.2109 8.18418 19.1024 16.1233 -5.76576 28.9646 -1.95079 2.53743 110.032 57.4425 -6.74423 -4.62574e-006 -3.3066e-006 -3.6222e-006 10.0481 42.8257 -4.04033 -5.40159e-006 1.10537e-006 -3.00348 8.02891 -4.95147 0.697705 -65.3912 -11.4816 7.06194 -92.7861 33.9229 39.6294 2.17674e-005 2.64075e-006 2.12765e-006 67.9349 81.3973 -59.1538 7.29386e-006 5.26163e-006 3 -8.02887 -4.95144 -0.697678 178.841 13.774 -1.23994 180 7.01495e-015 178.717 175.736 24.73 -179.447 -5.79216e-006 2.69059e-007 0.720789 -25.8016 71.791 23.7455 8.13649 25.2327 -3.48773 -178.919 11.8999 2.09415 -1.07169e-005 -4.64205e-006 -0.921543 -0.227513 -23.0742 0.969702 -1.37099e-006 -3.52311e-006 -0.490485 18.6375 72.1269 -23.265 -8.13649 25.2327 3.48774 
49.816 86.6459 3.73163 1.60188 -2.21457 5.03634 2.49489 0.127659 0.617243 4.99461 4.27331 0.908504 4.99162 5.91467 0.825654 -35.4358 19.1874 8.11368 18.713 16.095 -5.68819 29.2573 -2.02634 2.41311 110.148 57.0047 -7.40764 -4.62574e-006 -3.3066e-006 -3.6222e-006 9.94828 43.3871 -3.98426 -5.40159e-006 1.10537e-006 -3.00346 8.02891 -4.95147 0.697705 -65.1475 -11.4498 7.04774 -93.1163 34.6057 39.4761 2.17674e-005 2.64075e-006 2.12765e-006 65.1328 81.5364 -56.685 7.29386e-006 5.26163e-006 3 -8.02887 -4.95144 -0.697678 178.851 13.769 -1.24765 180 7.01495e-015 178.717 175.736 24.7143 -179.448 -5.79216e-006 2.69059e-007 0.719434 -25.7868 71.7862 23.7381 8.13649 25.2327 -3.48773 -178.904 11.8983 2.07337 -1.07169e-005 -4.64205e-006 -0.921685 -0.237539 -23.0974 0.96659 -1.37099e-006 -3.52311e-006 -0.491728 18.6855 72.1542 -23.2981 -8.13649 25.2327 3.48774 
49.8269 86.6539 3.74012 1.5832 -2.21116 4.97786 2.48568 0.116529 0.614758 4.97619 4.25093 0.90468 4.97319 5.89232 0.822132 -35.1368 19.162 8.0442 18.329 16.0677 -5.61092 29.5478 -2.10203 2.28991 110.255 56.5605 -8.06887 -4.62574e-006 -3.3066e-006 -3.6222e-006 9.83727 43.9523 -3.92127 -5.40159e-006 1.10537e-006 -3.00345 8.02891 -4.95147 0.697705 -64.9025 -11.4188 7.03369 -93.4541 35.2865 39.3278 2.17674e-005 2.64075e-006 2.12765e-006 62.237 81.6519 -54.1186 7.29386e-006 5.26163e-006 3 -8.02887 -4.95144 -0.697678 178.861 13.7647 -1.25507 180 7.01495e-015 178.717 175.736 24.6985 -179.448 -5.79216e-006 2.69059e-007 0.718046 -25.7717 71.7813 23.7304 8.13649 25.2327 -3.48773 -178.89 11.8971 2.05291 -1.07169e-005 -4.64205e-006 -0.921837 -0.247532 -23.1197 0.96348 -1.37099e-006 -3.52311e-006 -0.492944 18.733 72.1813 -23.3309 -8.13649 25.2327 3.48774 
49.8465 86.6486 3.72936 1.56468 -2.2069 4.91903 2.47644 0.105391 0.61205 4.95768 4.22852 0.900395 4.95467 5.86993 0.818152 -34.8435 19.1346 7.977 17.9564 16.0425 -5.53414 29.8357 -2.17771 2.16798 110.355 56.1104 -8.727 -4.62574e-006 -3.3066e-006 -3.6222e-006 9.71492 44.5197 -3.85108 -5.40159e-006 1.10537e-006 -3.00344 8.02891 -4.95147 0.697705 -64.6576 -11.3878 7.01931 -93.7976 35.9653 39.1809 2.17674e-005 2.64075e-006 2.12765e-006 59.237 81.7427 -51.4465 7.29386e-006 5.26163e-006 3 -8.02887 -4.95144 -0.697678 178.87 13.7614 -1.26238 180 7.01495e-015 178.718 175.736 24.6825 -179.449 -5.79216e-006 2.69059e-007 0.716641 -25.7562 71.7761 23.7224 8.13649 25.2327 -3.48773 -178.876 11.8962 2.03284 -1.07169e-005 -4.64205e-006 -0.921993 -0.257355 -23.1413 0.960437 -1.37099e-006 -3.52311e-006 -0.494132 18.78 72.2081 -23.3635 -8.13649 25.2327 3.48774 
49.8506 86.6381 3.73856 1.54632 -2.2017 4.85971 2.46717 0.0941982 0.609152 4.93913 4.20599 0.895737 4.93612 5.84743 0.813798 -34.5587 19.1053 7.9133 17.601 16.0204 -5.45803 30.1206 -2.25324 2.04749 110.448 55.6551 -9.38123 -4.62574e-006 -3.3066e-006 -3.6222e-006 9.58108 45.0878 -3.77337 -5.40159e-006 1.10537e-006 -3.00343 8.02891 -4.95147 0.697705 -64.4138 -11.356 7.00416 -94.1448 36.6423 39.0317 2.17674e-005 2.64075e-006 2.12765e-006 56.1251 81.807 -48.6629 7.29386e-006 5.26163e-006 3 -8.02887 -4.95144 -0.697678 178.879 13.7593 -1.26975 180 7.01495e-015 178.718 175.735 24.6665 -179.45 -5.79216e-006 2.69059e-007 0.715235 -25.7402 71.7707 23.714 8.13649 25.2327 -3.48773 -178.862 11.8957 2.01326 -1.07169e-005 -4.64205e-006 -0.92215 -0.266868 -23.1622 0.957522 -1.37099e-006 -3.52311e-006 -0.495291 18.8264 72.2347 -23.396 -8.13649 25.2327 3.48774 
49.862 86.6416 3.74498 1.52811 -2.19549 4.79974 2.4579 0.0829058 0.606103 4.92059 4.18326 0.89079 4.91758 5.82473 0.809155 -34.2848 19.074 7.85436 17.2687 16.0023 -5.38279 30.4018 -2.32846 1.9286 110.537 55.1952 -10.0308 -4.62574e-006 -3.3066e-006 -3.6222e-006 9.43559 45.655 -3.68784 -5.40159e-006 1.10537e-006 -3.00341 8.02891 -4.95147 0.697705 -64.1724 -11.3226 6.98777 -94.4934 37.3177 38.8763 2.17674e-005 2.64075e-006 2.12765e-006 52.8961 81.8429 -45.7652 7.29386e-006 5.26163e-006 3 -8.02887 -4.95144 -0.697678 178.887 13.7586 -1.27738 180 7.01495e-015 178.718 175.736 24.6507 -179.451 -5.79216e-006 2.69059e-007 0.713848 -25.7235 71.7649 23.7052 8.13649 25.2327 -3.48773 -178.849 11.8958 1.99422 -1.07169e-005 -4.64205e-006 -0.922303 -0.275934 -23.1826 0.954799 -1.37099e-006 -3.52311e-006 -0.496423 18.872 72.2613 -23.4283 -8.13649 25.2327 3.48774 
49.8715 86.6493 3.75343 1.51004 -2.18819 4.73897 2.44866 0.0714689 0.602936 4.9021 4.16023 0.88564 4.89908 5.80174 0.804308 -34.0244 19.0407 7.80142 16.9655 15.9894 -5.30859 30.679 -2.40323 1.81147 110.624 54.7313 -10.6752 -4.62574e-006 -3.3066e-006 -3.6222e-006 9.27829 46.2198 -3.59415 -5.40159e-006 1.10537e-006 -3.0034 8.02891 -4.95147 0.697705 -63.9345 -11.2868 6.96969 -94.8412 37.9916 38.7107 2.17674e-005 2.64075e-006 2.12765e-006 49.5495 81.8477 -42.7548 7.29386e-006 5.26163e-006 3 -8.02887 -4.95144 -0.697678 178.896 13.7597 -1.28544 180 7.01495e-015 178.718 175.736 24.6353 -179.452 -5.79216e-006 2.69059e-007 0.712496 -25.7061 71.7589 23.696 8.13649 25.2327 -3.48773 -178.835 11.8966 1.97581 -1.07169e-005 -4.64205e-006 -0.922448 -0.284414 -23.2025 0.952331 -1.37099e-006 -3.52311e-006 -0.497526 18.9166 72.2878 -23.4606 -8.13649 25.2327 3.48774 
